<?xml version="1.0" encoding="UTF-8"?>
<svg width="60px" height="60px" viewBox="0 0 60 60" version="1.1" xmlns="http://www.w3.org/2000/svg" xmlns:xlink="http://www.w3.org/1999/xlink">
    <!-- Generator: Sketch 54.1 (76490) - https://sketchapp.com -->
    <title>Artboard Copy 12</title>
    <desc>Created with Sketch.</desc>
    <g id="Artboard-Copy-12" stroke="none" stroke-width="1" fill="none" fill-rule="evenodd">
        <g id="Group-17-Copy-8" fill="#FF9900" stroke="#000000" stroke-opacity="0.200174825" stroke-width="2">
            <rect id="Rectangle" x="1" y="1" width="58" height="58" rx="8"></rect>
        </g>
        <g id="Group-25" transform="translate(10.000000, 22.000000)" fill="#FFFFFF">
            <g id="Group" transform="translate(2.553191, 9.361702)">
                <polygon id="Path" points="2.55319149 5.39007092 0.226950355 4.53900709 0.226950355 1.13475177 2.55319149 1.92907801"></polygon>
                <polygon id="Path" points="2.9787234 5.39007092 5.33333333 4.53900709 5.33333333 1.13475177 2.9787234 1.92907801"></polygon>
                <polygon id="Path" points="0.453900709 0.879432624 2.83687943 0.19858156 5.0212766 0.907801418 2.83687943 1.64539007"></polygon>
            </g>
            <g id="Group" transform="translate(0.000000, 4.539007)">
                <polygon id="Path" points="2.32624113 5.41843972 0 4.59574468 0 1.16312057 2.32624113 1.95744681"></polygon>
                <polygon id="Path" points="2.75177305 5.41843972 5.10638298 4.59574468 5.10638298 1.16312057 2.75177305 1.95744681"></polygon>
                <polygon id="Path" points="0.226950355 0.907801418 2.60992908 0.255319149 4.79432624 0.964539007 2.60992908 1.70212766"></polygon>
            </g>
            <g id="Group" transform="translate(5.390071, 4.539007)">
                <polygon id="Path" points="2.38297872 5.41843972 0.0567375887 4.59574468 0.0567375887 1.16312057 2.38297872 1.95744681"></polygon>
                <polygon id="Path" points="2.80851064 5.41843972 5.16312057 4.59574468 5.16312057 1.16312057 2.80851064 1.95744681"></polygon>
                <polygon id="Path" points="0.312056738 0.907801418 2.66666667 0.255319149 4.85106383 0.964539007 2.66666667 1.70212766"></polygon>
            </g>
            <g id="Group" transform="translate(8.226950, 0.000000)">
                <polygon id="Path" points="2.32624113 5.19148936 0 4.34042553 0 0.936170213 2.32624113 1.73049645"></polygon>
                <polygon id="Path" points="2.75177305 5.19148936 5.10638298 4.34042553 5.10638298 0.936170213 2.75177305 1.73049645"></polygon>
                <polygon id="Path" points="0.226950355 0.680851064 2.60992908 0 4.79432624 0.709219858 2.60992908 1.44680851"></polygon>
            </g>
            <g id="Group" transform="translate(13.617021, 0.000000)">
                <polygon id="Path" points="2.38297872 5.19148936 0.0567375887 4.34042553 0.0567375887 0.936170213 2.38297872 1.73049645"></polygon>
                <polygon id="Path" points="2.80851064 5.19148936 5.16312057 4.34042553 5.16312057 0.936170213 2.80851064 1.73049645"></polygon>
                <polygon id="Path" points="0.312056738 0.680851064 2.66666667 0 4.85106383 0.709219858 2.66666667 1.44680851"></polygon>
            </g>
            <polygon id="Path" fill-rule="nonzero" points="14.8368794 12.5106383 14.0425532 15.2340426 13.7021277 15.2340426 13.0780142 13.2198582 12.5106383 15.2340426 12.1702128 15.2340426 11.3475177 12.5106383 11.7730496 12.5106383 12.3687943 14.5531915 12.9361702 12.5106383 13.248227 12.5106383 13.8723404 14.5531915 14.4964539 12.5106383"></polygon>
            <path d="M16.9929078,14.4397163 L17.3900709,14.5248227 C17.3049645,14.751773 17.1914894,14.9503546 16.964539,15.0921986 C16.7659574,15.2340426 16.5106383,15.3191489 16.2269504,15.3191489 C15.858156,15.3191489 15.5460993,15.177305 15.3191489,14.9219858 C15.0921986,14.6666667 14.9787234,14.3262411 14.9787234,13.9007092 C14.9787234,13.4751773 15.0921986,13.106383 15.3475177,12.8510638 C15.5744681,12.5957447 15.8865248,12.4539007 16.2553191,12.4539007 C16.6241135,12.4539007 16.9078014,12.5673759 17.106383,12.822695 C17.3333333,13.0780142 17.4468085,13.4468085 17.4468085,13.929078 L15.4609929,13.929078 C15.4609929,14.3546099 15.5460993,14.6099291 15.7163121,14.751773 C15.8865248,14.893617 16.0567376,14.9787234 16.2553191,14.9787234 C16.5957447,14.9503546 16.8510638,14.7801418 16.9929078,14.4397163 Z M16.964539,13.5886525 C16.964539,13.4468085 16.9361702,13.3049645 16.8794326,13.1914894 C16.822695,13.0780142 16.7659574,12.964539 16.6524823,12.8794326 C16.5390071,12.7943262 16.3971631,12.7659574 16.2553191,12.7659574 C16.0567376,12.7659574 15.858156,12.8510638 15.7163121,12.9929078 C15.5744681,13.1347518 15.4893617,13.3333333 15.4609929,13.5886525 L16.964539,13.5886525 L16.964539,13.5886525 Z" id="Shape" fill-rule="nonzero"></path>
            <path d="M18.1843972,15.2340426 L17.9858156,15.2340426 L17.9858156,11.5460993 L18.4113475,11.5460993 L18.4113475,12.964539 C18.6099291,12.6241135 18.8652482,12.4255319 19.2056738,12.4255319 C19.5177305,12.4255319 19.7730496,12.5390071 20,12.7943262 C20.1985816,13.0496454 20.3120567,13.3900709 20.3120567,13.8723404 C20.3120567,14.2695035 20.1985816,14.6099291 20,14.893617 C19.8014184,15.177305 19.5177305,15.3191489 19.177305,15.3191489 C18.8085106,15.3191489 18.5248227,15.1489362 18.3262411,14.7801418 L18.1843972,15.2340426 Z M18.4113475,14.1843972 C18.4397163,14.4680851 18.5248227,14.6666667 18.6666667,14.7801418 C18.8085106,14.893617 18.9787234,14.9787234 19.1489362,14.9787234 C19.3758865,14.9787234 19.5460993,14.893617 19.6595745,14.6950355 C19.8014184,14.4964539 19.858156,14.2411348 19.858156,13.929078 C19.858156,13.5886525 19.8014184,13.3049645 19.6595745,13.106383 C19.5460993,12.9078014 19.3475177,12.7943262 19.1205674,12.7943262 C18.9503546,12.7943262 18.7801418,12.8794326 18.6382979,13.0212766 C18.4964539,13.1631206 18.4113475,13.3617021 18.3829787,13.5886525 L18.3829787,14.1843972 L18.4113475,14.1843972 Z" id="Shape" fill-rule="nonzero"></path>
            <path d="M21.3900709,14.5248227 L21.787234,14.4397163 C21.8723404,14.7801418 22.1560284,14.9503546 22.6382979,14.9503546 C22.8085106,14.9503546 22.9503546,14.9219858 23.0921986,14.8368794 C23.2056738,14.751773 23.2624113,14.6382979 23.2624113,14.4964539 C23.2624113,14.2695035 23.1205674,14.1560284 22.8085106,14.0992908 L22.2411348,13.9858156 C22.0141844,13.929078 21.8439716,13.8439716 21.7021277,13.7304965 C21.5602837,13.6170213 21.5035461,13.4468085 21.5035461,13.2198582 C21.5035461,12.9929078 21.5886525,12.7943262 21.787234,12.6524823 C21.9574468,12.5106383 22.212766,12.4255319 22.5248227,12.4255319 C23.1205674,12.4255319 23.4893617,12.6524823 23.6312057,13.106383 L23.2340426,13.1914894 C23.1205674,12.9078014 22.893617,12.7659574 22.5531915,12.7659574 C22.3829787,12.7659574 22.2411348,12.7943262 22.1276596,12.8794326 C22.0141844,12.9361702 21.9574468,13.0496454 21.9574468,13.1631206 C21.9574468,13.3617021 22.0992908,13.5035461 22.3829787,13.5319149 L22.9219858,13.6170213 C23.4893617,13.7304965 23.7446809,13.9858156 23.7446809,14.4113475 C23.7446809,14.6666667 23.6312057,14.8652482 23.4326241,15.0070922 C23.2340426,15.1489362 22.9503546,15.2340426 22.6099291,15.2340426 C21.9574468,15.3191489 21.5602837,15.0638298 21.3900709,14.5248227 Z" id="Path" fill-rule="nonzero"></path>
            <path d="M25.9858156,14.4397163 L26.3829787,14.5248227 C26.2978723,14.751773 26.1843972,14.9503546 25.9574468,15.0921986 C25.7588652,15.2340426 25.5035461,15.3191489 25.2198582,15.3191489 C24.8510638,15.3191489 24.5390071,15.177305 24.3120567,14.9219858 C24.0851064,14.6666667 23.9716312,14.3262411 23.9716312,13.9007092 C23.9716312,13.4751773 24.0851064,13.106383 24.3404255,12.8510638 C24.5673759,12.5957447 24.8794326,12.4539007 25.248227,12.4539007 C25.6170213,12.4539007 25.9007092,12.5673759 26.0992908,12.822695 C26.3262411,13.0780142 26.4397163,13.4468085 26.4397163,13.929078 L24.4539007,13.929078 C24.4539007,14.3546099 24.5390071,14.6099291 24.7092199,14.751773 C24.8794326,14.893617 25.0496454,14.9787234 25.248227,14.9787234 C25.6170213,14.9503546 25.8439716,14.7801418 25.9858156,14.4397163 Z M25.9574468,13.5886525 C25.9574468,13.4468085 25.929078,13.3049645 25.8723404,13.1914894 C25.8156028,13.0780142 25.7588652,12.964539 25.6453901,12.8794326 C25.5319149,12.7943262 25.4184397,12.7659574 25.248227,12.7659574 C25.0496454,12.7659574 24.8510638,12.8510638 24.7092199,12.9929078 C24.5673759,13.1347518 24.4822695,13.3333333 24.4539007,13.5886525 L25.9574468,13.5886525 L25.9574468,13.5886525 Z" id="Shape" fill-rule="nonzero"></path>
            <path d="M27.3191489,15.2340426 L26.893617,15.2340426 L26.893617,12.5106383 L27.2624113,12.5106383 L27.2624113,13.1347518 C27.4042553,12.8510638 27.5177305,12.6524823 27.6595745,12.5673759 C27.8014184,12.4822695 27.9148936,12.4255319 28.0567376,12.4255319 C28.1134752,12.4255319 28.141844,12.4255319 28.2269504,12.4255319 L28.2269504,12.822695 L28.141844,12.822695 C27.9148936,12.822695 27.7163121,12.9078014 27.5744681,13.0780142 C27.4326241,13.248227 27.3475177,13.4751773 27.3191489,13.7588652 L27.3191489,15.2340426 Z" id="Path" fill-rule="nonzero"></path>
            <polygon id="Path" fill-rule="nonzero" points="30.8652482 12.5106383 29.929078 15.2340426 29.4751773 15.2340426 28.5106383 12.5106383 28.9929078 12.5106383 29.7588652 14.7234043 30.4964539 12.5106383"></polygon>
            <path d="M31.7755373,11.5861598 L31.7755373,12.0684293 L31.2442873,12.0684293 L31.2442873,11.5861598 L31.7755373,11.5861598 Z M31.7369238,12.5106383 L31.7369238,15.2340426 L31.2681738,15.2340426 L31.2681738,12.5106383 L31.7369238,12.5106383 Z" id="Shape" fill-rule="nonzero"></path>
            <path d="M33.8723404,14.2978723 L34.2411348,14.3546099 C34.1843972,14.6666667 34.070922,14.893617 33.8723404,15.0638298 C33.6737589,15.2340426 33.4468085,15.3191489 33.1914894,15.3191489 C32.822695,15.3191489 32.5390071,15.177305 32.3404255,14.893617 C32.141844,14.6099291 32.0567376,14.2695035 32.0567376,13.8723404 C32.0567376,13.4468085 32.1702128,13.106383 32.3687943,12.8510638 C32.5673759,12.5673759 32.8510638,12.4255319 33.2198582,12.4255319 C33.5035461,12.4255319 33.7588652,12.5106383 33.929078,12.6808511 C34.0992908,12.8510638 34.212766,13.0780142 34.2695035,13.3617021 L33.9007092,13.4468085 C33.8156028,12.9929078 33.6170213,12.7659574 33.248227,12.7659574 C33.0212766,12.7659574 32.822695,12.8510638 32.7092199,13.0496454 C32.5957447,13.248227 32.5106383,13.5035461 32.5106383,13.8156028 C32.5106383,14.1560284 32.5673759,14.4397163 32.7092199,14.6382979 C32.822695,14.8368794 33.0212766,14.9219858 33.248227,14.9219858 C33.5602837,14.9503546 33.7588652,14.751773 33.8723404,14.2978723 Z" id="Path" fill-rule="nonzero"></path>
            <path d="M36.6524823,14.4397163 L37.0496454,14.5248227 C36.964539,14.751773 36.8510638,14.9503546 36.6241135,15.0921986 C36.4255319,15.2340426 36.1702128,15.3191489 35.8865248,15.3191489 C35.5177305,15.3191489 35.2056738,15.177305 34.9787234,14.9219858 C34.751773,14.6666667 34.6382979,14.3262411 34.6382979,13.9007092 C34.6382979,13.4751773 34.751773,13.106383 35.0070922,12.8510638 C35.2340426,12.5957447 35.5460993,12.4539007 35.9148936,12.4539007 C36.2836879,12.4539007 36.5673759,12.5673759 36.7659574,12.822695 C36.9929078,13.0780142 37.106383,13.4468085 37.106383,13.929078 L35.1205674,13.929078 C35.1205674,14.3546099 35.2056738,14.6099291 35.3758865,14.751773 C35.5460993,14.893617 35.7163121,14.9787234 35.9148936,14.9787234 C36.2553191,14.9503546 36.5106383,14.7801418 36.6524823,14.4397163 Z M36.6241135,13.5886525 C36.6241135,13.4468085 36.5957447,13.3049645 36.5390071,13.1914894 C36.4822695,13.0780142 36.4255319,12.964539 36.3120567,12.8794326 C36.1985816,12.7943262 36.0567376,12.7659574 35.9148936,12.7659574 C35.7163121,12.7659574 35.5177305,12.8510638 35.3758865,12.9929078 C35.2340426,13.1347518 35.1489362,13.3333333 35.1205674,13.5886525 L36.6241135,13.5886525 L36.6241135,13.5886525 Z" id="Shape" fill-rule="nonzero"></path>
            <path d="M37.3333333,14.5248227 L37.7304965,14.4397163 C37.8156028,14.7801418 38.0992908,14.9503546 38.5815603,14.9503546 C38.751773,14.9503546 38.893617,14.9219858 39.035461,14.8368794 C39.1489362,14.751773 39.2056738,14.6382979 39.2056738,14.4964539 C39.2056738,14.2695035 39.0638298,14.1560284 38.751773,14.0992908 L38.1843972,13.9858156 C37.9574468,13.929078 37.787234,13.8439716 37.6453901,13.7304965 C37.5035461,13.6170213 37.4468085,13.4468085 37.4468085,13.2198582 C37.4468085,12.9929078 37.5319149,12.7943262 37.7304965,12.6524823 C37.9007092,12.5106383 38.1560284,12.4255319 38.4680851,12.4255319 C39.0638298,12.4255319 39.4326241,12.6524823 39.5744681,13.106383 L39.177305,13.1914894 C39.0638298,12.9078014 38.8368794,12.7659574 38.4964539,12.7659574 C38.3262411,12.7659574 38.1843972,12.7943262 38.070922,12.8794326 C37.9574468,12.9361702 37.9007092,13.0496454 37.9007092,13.1631206 C37.9007092,13.3617021 38.0425532,13.5035461 38.3262411,13.5319149 L38.8652482,13.6170213 C39.4326241,13.7304965 39.6879433,13.9858156 39.6879433,14.4113475 C39.6879433,14.6666667 39.5744681,14.8652482 39.3758865,15.0070922 C39.177305,15.1489362 38.893617,15.2340426 38.5531915,15.2340426 C37.8723404,15.3191489 37.4751773,15.0638298 37.3333333,14.5248227 Z" id="Path" fill-rule="nonzero"></path>
            <path d="M27.7446809,6.69503546 L27.7446809,6.04255319 C27.7446809,5.92907801 27.8297872,5.87234043 27.9148936,5.87234043 L30.8368794,5.87234043 C30.9219858,5.87234043 31.0070922,5.92907801 31.0070922,6.04255319 L31.0070922,6.60992908 C31.0070922,6.69503546 30.9219858,6.83687943 30.7801418,7.03546099 L29.248227,9.19148936 C29.8156028,9.19148936 30.4113475,9.27659574 30.9219858,9.56028369 C31.035461,9.61702128 31.0638298,9.73049645 31.0638298,9.81560284 L31.0638298,10.4964539 C31.0638298,10.5815603 30.9503546,10.6950355 30.8368794,10.6382979 C29.929078,10.1560284 28.7375887,10.1276596 27.7446809,10.6382979 C27.6312057,10.6950355 27.5460993,10.5815603 27.5460993,10.4964539 L27.5460993,9.84397163 C27.5460993,9.73049645 27.5460993,9.56028369 27.6595745,9.39007092 L29.4184397,6.86524823 L27.8865248,6.86524823 C27.8297872,6.86524823 27.7446809,6.78014184 27.7446809,6.69503546 Z" id="Path" fill-rule="nonzero"></path>
            <path d="M17.248227,10.7801418 L16.3687943,10.7801418 C16.2836879,10.7801418 16.2269504,10.7234043 16.1985816,10.6382979 L16.1985816,6.07092199 C16.1985816,5.9858156 16.2836879,5.90070922 16.3687943,5.90070922 L17.1914894,5.90070922 C17.2765957,5.90070922 17.3617021,5.95744681 17.3617021,6.04255319 L17.3617021,6.63829787 L17.3900709,6.63829787 C17.6170213,6.07092199 18.0141844,5.78723404 18.5531915,5.78723404 C19.1205674,5.78723404 19.4609929,6.07092199 19.7163121,6.63829787 C19.9432624,6.07092199 20.4255319,5.78723404 20.9361702,5.78723404 C21.3049645,5.78723404 21.7304965,5.92907801 21.9574468,6.29787234 C22.2411348,6.69503546 22.1843972,7.23404255 22.1843972,7.74468085 L22.1843972,10.6382979 C22.1843972,10.7234043 22.0992908,10.8085106 22.0141844,10.8085106 L21.1347518,10.8085106 C21.0496454,10.8085106 20.964539,10.7234043 20.964539,10.6382979 L20.964539,8.19858156 C20.964539,8 20.9929078,7.5177305 20.9361702,7.34751773 C20.8794326,7.03546099 20.6808511,6.95035461 20.4255319,6.95035461 C20.1985816,6.95035461 19.9716312,7.09219858 19.8865248,7.31914894 C19.8014184,7.54609929 19.8014184,7.94326241 19.8014184,8.19858156 L19.8014184,10.6382979 C19.8014184,10.7234043 19.7163121,10.8085106 19.6312057,10.8085106 L18.751773,10.8085106 C18.6666667,10.8085106 18.5815603,10.7234043 18.5815603,10.6382979 L18.5815603,8.19858156 C18.5815603,7.68794326 18.6666667,6.92198582 18.0425532,6.92198582 C17.3900709,6.92198582 17.4184397,7.65957447 17.4184397,8.19858156 L17.4184397,10.6382979 C17.4184397,10.6950355 17.3617021,10.7801418 17.248227,10.7801418 Z" id="Path" fill-rule="nonzero"></path>
            <path d="M33.1631206,5.78723404 C34.4680851,5.78723404 35.177305,6.92198582 35.177305,8.36879433 C35.177305,9.75886525 34.3829787,10.8652482 33.1631206,10.8652482 C31.8865248,10.8652482 31.177305,9.73049645 31.177305,8.31205674 C31.177305,6.89361702 31.8865248,5.78723404 33.1631206,5.78723404 Z M33.1914894,6.83687943 C32.5390071,6.83687943 32.5106383,7.74468085 32.5106383,8.28368794 C32.5106383,8.85106383 32.5106383,9.92907801 33.1914894,9.92907801 C33.8723404,9.92907801 33.9007092,9.07801418 33.9007092,8.4822695 C33.9007092,8.08510638 33.8723404,7.63120567 33.7588652,7.26241135 C33.6737589,6.9787234 33.4751773,6.83687943 33.1914894,6.83687943 Z" id="Shape" fill-rule="nonzero"></path>
            <path d="M37.106383,10.7801418 L36.2269504,10.7801418 C36.141844,10.7801418 36.0567376,10.6950355 36.0567376,10.6099291 L36.0567376,6.0141844 C36.0567376,5.92907801 36.141844,5.87234043 36.2269504,5.87234043 L37.0496454,5.87234043 C37.1347518,5.87234043 37.1914894,5.92907801 37.2198582,6.0141844 L37.2198582,6.72340426 L37.248227,6.72340426 C37.5035461,6.09929078 37.8439716,5.78723404 38.4680851,5.78723404 C38.8652482,5.78723404 39.2624113,5.92907801 39.5177305,6.32624113 C39.7446809,6.69503546 39.7446809,7.31914894 39.7446809,7.74468085 L39.7446809,10.6382979 C39.7446809,10.7234043 39.6595745,10.7801418 39.5744681,10.7801418 L38.6666667,10.7801418 C38.5815603,10.7801418 38.5248227,10.7234043 38.4964539,10.6382979 L38.4964539,8.14184397 C38.4964539,7.63120567 38.5531915,6.92198582 37.929078,6.92198582 C37.7021277,6.92198582 37.5035461,7.06382979 37.4184397,7.29078014 C37.3049645,7.57446809 37.2765957,7.85815603 37.2765957,8.17021277 L37.2765957,10.6382979 C37.2765957,10.6950355 37.1914894,10.7801418 37.106383,10.7801418 Z" id="Path" fill-rule="nonzero"></path>
            <path d="M26.4113475,10.7801418 C26.3546099,10.8368794 26.2695035,10.8368794 26.212766,10.8085106 C25.929078,10.5531915 25.8723404,10.4397163 25.7021277,10.212766 C25.2198582,10.7234043 24.8510638,10.8652482 24.2269504,10.8652482 C23.4893617,10.8652482 22.893617,10.4113475 22.893617,9.4751773 C22.893617,8.73758865 23.2907801,8.25531915 23.858156,8.02836879 C24.3404255,7.82978723 25.0212766,7.77304965 25.5319149,7.71631206 L25.5319149,7.60283688 C25.5319149,7.40425532 25.5602837,7.14893617 25.4184397,6.95035461 C25.3049645,6.78014184 25.106383,6.72340426 24.9078014,6.72340426 C24.5673759,6.72340426 24.2553191,6.89361702 24.1985816,7.26241135 C24.1702128,7.34751773 24.1134752,7.43262411 24.0567376,7.43262411 L23.2056738,7.34751773 C23.1205674,7.31914894 23.0638298,7.26241135 23.0638298,7.14893617 C23.2624113,6.09929078 24.1985816,5.78723404 25.0496454,5.78723404 C25.4751773,5.78723404 26.0425532,5.90070922 26.3829787,6.24113475 C26.8085106,6.63829787 26.7801418,7.17730496 26.7801418,7.77304965 L26.7801418,9.16312057 C26.7801418,9.58865248 26.9503546,9.75886525 27.1205674,9.9858156 C27.177305,10.070922 27.177305,10.1560284 27.1205674,10.212766 C26.9219858,10.3262411 26.5815603,10.6099291 26.4113475,10.7801418 Z M25.5035461,8.59574468 L25.5035461,8.36879433 C24.8510638,8.36879433 24.1702128,8.5106383 24.1702128,9.27659574 C24.1702128,9.67375887 24.3687943,9.92907801 24.7092199,9.92907801 C24.964539,9.92907801 25.1914894,9.78723404 25.3333333,9.53191489 C25.5035461,9.21985816 25.5035461,8.93617021 25.5035461,8.59574468 Z" id="Combined-Shape" fill-rule="nonzero"></path>
            <path d="M14.8085106,10.7801418 C14.751773,10.8368794 14.6666667,10.8368794 14.6099291,10.8085106 C14.3262411,10.5531915 14.2695035,10.4397163 14.0992908,10.212766 C13.6170213,10.7234043 13.2765957,10.8652482 12.6241135,10.8652482 C11.8865248,10.8652482 11.2907801,10.4113475 11.2907801,9.4751773 C11.2907801,8.73758865 11.6879433,8.25531915 12.2553191,8.02836879 C12.7375887,7.82978723 13.4184397,7.77304965 13.929078,7.71631206 L13.929078,7.60283688 C13.929078,7.40425532 13.9574468,7.14893617 13.8156028,6.95035461 C13.7021277,6.78014184 13.5035461,6.72340426 13.3049645,6.72340426 C12.964539,6.72340426 12.6524823,6.89361702 12.5957447,7.26241135 C12.5673759,7.34751773 12.5106383,7.43262411 12.4539007,7.43262411 L11.6028369,7.34751773 C11.5177305,7.31914894 11.4609929,7.26241135 11.4609929,7.14893617 C11.6595745,6.09929078 12.5957447,5.78723404 13.4468085,5.78723404 C13.8723404,5.78723404 14.4397163,5.90070922 14.7801418,6.24113475 C15.2056738,6.63829787 15.177305,7.17730496 15.177305,7.77304965 L15.177305,9.16312057 C15.177305,9.58865248 15.3475177,9.75886525 15.5177305,9.9858156 C15.5744681,10.070922 15.5744681,10.1560284 15.5177305,10.212766 C15.3191489,10.3262411 15.0070922,10.6099291 14.8085106,10.7801418 Z M13.929078,8.59574468 L13.929078,8.36879433 C13.2765957,8.36879433 12.5957447,8.5106383 12.5957447,9.27659574 C12.5957447,9.67375887 12.7943262,9.92907801 13.1347518,9.92907801 C13.3900709,9.92907801 13.6170213,9.78723404 13.7588652,9.53191489 C13.929078,9.21985816 13.929078,8.93617021 13.929078,8.59574468 Z" id="Combined-Shape" fill-rule="nonzero"></path>
        </g>
    </g>
</svg>