<?xml version="1.0" encoding="UTF-8"?>
<svg width="60px" height="60px" viewBox="0 0 60 60" version="1.1" xmlns="http://www.w3.org/2000/svg" xmlns:xlink="http://www.w3.org/1999/xlink">
    <!-- Generator: Sketch 54.1 (76490) - https://sketchapp.com -->
    <title>Artboard Copy 11</title>
    <desc>Created with Sketch.</desc>
    <defs>
        <linearGradient x1="0%" y1="50%" x2="100%" y2="50%" id="linearGradient-1">
            <stop stop-color="#101034" offset="0%"></stop>
            <stop stop-color="#612D50" offset="100%"></stop>
        </linearGradient>
    </defs>
    <g id="Artboard-Copy-11" stroke="none" stroke-width="1" fill="none" fill-rule="evenodd">
        <rect id="Rectangle-Copy-28" stroke-opacity="0.202551355" stroke="#000000" stroke-width="2" fill="url(#linearGradient-1)" x="1" y="1" width="58" height="58" rx="8"></rect>
        <g id="bootstrap_s" transform="translate(13.000000, 13.000000)" fill="#FFFFFF" fill-rule="nonzero">
            <path d="M34,29.4342857 C34,31.96 31.96,34 29.4342857,34 L4.56571429,34 C2.04,34 0,31.96 0,29.4342857 L0,4.56571429 C0,2.04 2.04,0 4.56571429,0 L29.4342857,0 C31.96,0 34,2.04 34,4.56571429 L34,29.4342857 Z M8.18428571,6.36285714 L8.18428571,27.6371429 L18.36,27.6371429 C25.67,27.6371429 25.8157143,23.0714286 25.8157143,21.9057143 C25.8157143,17.85 23.5814286,16.6842857 22.2214286,16.2957143 C23.1442857,15.9314286 24.9414286,15.1057143 24.9414286,11.9242857 C24.9414286,10.3457143 23.7271429,6.36285714 18.1171429,6.36285714 L8.18428571,6.36285714 Z M13.6728571,14.6685714 L13.6728571,10.4428571 L16.7085714,10.4428571 C18.7242857,10.4428571 19.1371429,11.8514286 19.1371429,12.5071429 C19.1371429,13.2114286 18.9185714,14.6685714 16.6842857,14.6685714 L13.6728571,14.6685714 Z M13.6728571,23.9214286 L13.6728571,18.4814286 L17.1457143,18.4814286 C19.9628571,18.4814286 20.2057143,20.5214286 20.2057143,21.1771429 C20.2057143,21.9057143 20.0357143,23.9214286 17.1457143,23.9214286 L13.6728571,23.9214286 Z" id="Combined-Shape"></path>
        </g>
    </g>
</svg>