<?xml version="1.0" encoding="UTF-8"?>
<svg width="60px" height="60px" viewBox="0 0 60 60" version="1.1" xmlns="http://www.w3.org/2000/svg" xmlns:xlink="http://www.w3.org/1999/xlink">
    <!-- Generator: Sketch 54.1 (76490) - https://sketchapp.com -->
    <title>Artboard Copy 8</title>
    <desc>Created with Sketch.</desc>
    <g id="Artboard-Copy-8" stroke="none" stroke-width="1" fill="none" fill-rule="evenodd">
        <rect id="Rectangle" stroke-opacity="0.194957386" stroke="#000000" stroke-width="2" fill="#EE4323" x="1" y="1" width="58" height="58" rx="8"></rect>
        <g id="codeigniter_s" transform="translate(13.000000, 10.000000)" fill="#FFFFFF" fill-rule="nonzero">
            <path d="M10.9142857,40 C8.51428571,38.9428571 6.28571429,36.3428571 6.28571429,33.6285714 C6.28571429,30.6857143 8.14285714,28.2 10.4571429,26.5428571 C10.1714286,27.6 10.0285714,28.5714286 10.7142857,29.4857143 C11.3714286,30.3428571 12.4857143,30.8 13.5428571,30.5428571 C16,30 16.1142857,27.2857143 14.6571429,25.6857143 C13.2,24.1142857 11.8,22.3428571 12.3428571,20.0571429 C12.6285714,18.8857143 13.3142857,17.8571429 14.2,17.0857143 C13.4857143,18.8571429 15.4285714,20.6285714 16.7142857,21.5428571 C18.9142857,23.0571429 21.3428571,24.2285714 23.4285714,26.0285714 C25.5714286,27.9142857 27.1714286,30.4571429 26.8285714,33.4285714 C26.4571429,36.6285714 23.9142857,38.8571429 21.0857143,40 C27.1142857,38.6571429 33.3428571,33.9714286 33.4857143,27.3142857 C33.6,21.8 29.8285714,17.5714286 25.1428571,15.1428571 L24.8857143,15 C25.0285714,15.3142857 25.0571429,15.5714286 25.0571429,15.8 C25.0857143,15.6285714 25.1428571,15.4285714 25.1428571,15.2571429 C25.1428571,15.4857143 25.1142857,15.6857143 25.0571429,15.9142857 L25.0571429,15.8 C24.9714286,16.0857143 24.8857143,16.3714286 24.6857143,16.6285714 L24.7714286,16.5428571 C23.8285714,18.1142857 21.3142857,18.4285714 20.0571429,16.8285714 C18.0571429,14.2571429 20.0857143,11.4571429 20.3714286,8.74285714 C20.7714286,5.34285714 18.6285714,2 15.9428571,0 C17.4,2.37142857 15.4571429,5.51428571 13.9428571,7.25714286 C12.4571429,8.97142857 10.6,10.3714286 8.97142857,11.9428571 C7.2,13.6 5.48571429,15.3428571 4.02857143,17.3142857 C1.08571429,21.2 -0.685714286,26.1142857 0.628571429,31 C1.94285714,35.8285714 6.17142857,38.9142857 10.9142857,40 L10.9142857,40 Z" id="Path"></path>
        </g>
    </g>
</svg>