<?xml version="1.0" encoding="UTF-8"?>
<svg width="60px" height="60px" viewBox="0 0 60 60" version="1.1" xmlns="http://www.w3.org/2000/svg" xmlns:xlink="http://www.w3.org/1999/xlink">
    <!-- Generator: Sketch 54.1 (76490) - https://sketchapp.com -->
    <title>Artboard Copy 13</title>
    <desc>Created with Sketch.</desc>
    <g id="Artboard-Copy-13" stroke="none" stroke-width="1" fill="none" fill-rule="evenodd">
        <rect id="Rectangle-Copy-29" stroke-opacity="0.200174825" stroke="#000000" stroke-width="2" fill="#547DBF" x="1" y="1" width="58" height="58" rx="8"></rect>
        <g id="Group-24" transform="translate(13.000000, 15.000000)" fill="#FFFFFF" fill-rule="nonzero">
            <path d="M11.7786278,24.1223633 L11.7785714,24.1642857 L6.85329468,15.6003916 L11.7786278,24.1223633 Z M6.58209719,15.1288431 L3.13285714,9.13142857 L7.67428571,1.19 C8.06285714,0.388571429 8.86428571,-2.84217094e-14 9.64142857,-2.84217094e-14 L24.3828571,-2.84217094e-14 C25.2571429,-2.84217094e-14 25.9614286,0.51 26.35,1.19 L29.1914286,6.09571429 L11.8028571,6.09571429 L6.58209719,15.1288431 Z" id="Combined-Shape"></path>
            <path d="M27.3822274,15.1928837 L27.4914286,15.13 L18.7485714,30.26 L9.61714286,30.26 C8.84,30.26 8.03857143,29.75 7.65,29.07 L0.291428571,16.2957143 C-0.0971428571,15.6157143 -0.0971428571,14.7171429 0.291428571,14.0371429 L3.13285714,9.13142857 L6.58694674,15.1204523 L6.58142857,15.13 L11.8028571,24.1642857 L22.1971429,24.1642857 L27.3822274,15.1928837 Z" id="Combined-Shape"></path>
            <path d="M27.4185714,15.13 L22.1971429,6.09571429 L29.1914286,6.09571429 L33.7085714,13.94 C34.0971429,14.62 34.0971429,15.5185714 33.7085714,16.1985714 L26.35,29.07 C25.9614286,29.8714286 25.16,30.26 24.3828571,30.26 L18.6757143,30.26 L27.4185714,15.13 Z" id="Combined-Shape"></path>
        </g>
    </g>
</svg>