<?xml version="1.0" encoding="UTF-8"?>
<svg width="60px" height="60px" viewBox="0 0 60 60" version="1.1" xmlns="http://www.w3.org/2000/svg" xmlns:xlink="http://www.w3.org/1999/xlink">
    <!-- Generator: Sketch 54.1 (76490) - https://sketchapp.com -->
    <title>Artboard Copy 9</title>
    <desc>Created with Sketch.</desc>
    <defs>
        <linearGradient x1="50.0310958%" y1="0.013406208%" x2="50.0310958%" y2="100.040132%" id="linearGradient-1">
            <stop stop-color="#2E4F82" offset="0%"></stop>
            <stop stop-color="#182E4D" offset="100%"></stop>
        </linearGradient>
    </defs>
    <g id="Artboard-Copy-9" stroke="none" stroke-width="1" fill="none" fill-rule="evenodd">
        <g id="Group-17-Copy-7" fill="#2C4C7D" stroke="#000000" stroke-opacity="0.202551355" stroke-width="2">
            <rect id="Rectangle" x="1" y="1" width="58" height="58" rx="8"></rect>
        </g>
        <g id="less_s" transform="translate(10.000000, 21.000000)">
            <g id="Group" transform="translate(2.285714, 0.000000)" fill="url(#linearGradient-1)" fill-rule="nonzero">
                <path d="M35.2571429,13.8 C35.2571429,15.6 33.7428571,17.0857143 31.8857143,17.0857143 L3.6,17.0857143 C1.74285714,17.0857143 0.228571429,15.6 0.228571429,13.8 L0.228571429,3.34285714 C0.228571429,1.54285714 1.74285714,0.0571428571 3.6,0.0571428571 L31.8857143,0.0571428571 C33.7428571,0.0571428571 35.2571429,1.54285714 35.2571429,3.34285714 L35.2571429,13.8" id="path-2_1_"></path>
            </g>
            <g id="Group">
                <polyline id="path-4_1_" points="0 0.0285714286 40 0.0285714286 40 17.1428571 0 17.1428571"></polyline>
            </g>
            <path d="M38.2857143,6.25714286 C38.2857143,4.97142857 38.4857143,4.22857143 38.4857143,2.82857143 C38.4857143,0.685714286 37.6857143,7.10542736e-15 35.9428571,7.10542736e-15 L34.6571429,7.10542736e-15 L34.6571429,1.51428571 L35.0571429,1.51428571 C35.9428571,1.51428571 36.1428571,1.8 36.1428571,2.88571429 C36.1428571,3.91428571 36.0571429,4.91428571 36.0571429,6.11428571 C36.0571429,7.62857143 36.5428571,8.22857143 37.5428571,8.45714286 L37.5428571,8.54285714 C36.5714286,8.77142857 36.0571429,9.37142857 36.0571429,10.8857143 C36.0571429,12.0571429 36.1428571,13.0285714 36.1428571,14.1142857 C36.1428571,15.2285714 35.9142857,15.5142857 35.0571429,15.5142857 L35.0571429,15.5428571 L34.6571429,15.5428571 L34.6571429,17.1142857 L35.9428571,17.1142857 C37.6857143,17.1142857 38.4857143,16.4285714 38.4857143,14.2857143 C38.4857143,12.8857143 38.2857143,12.1428571 38.2857143,10.8571429 C38.2857143,10.1714286 38.7142857,9.45714286 40,9.37142857 L40,7.65714286 C38.7142857,7.65714286 38.2857143,6.94285714 38.2857143,6.25714286" id="Path" fill="#FAF9F8" fill-rule="nonzero"></path>
            <path d="M23.7428571,8.25714286 C22.7142857,7.85714286 21.8,7.62857143 21.8,6.97142857 C21.8,6.48571429 22.2,6.17142857 22.9142857,6.17142857 C23.6285714,6.17142857 24.2857143,6.45714286 25.0285714,7 L26.3428571,5.25714286 C25.5142857,4.62857143 24.4,3.97142857 22.8857143,3.97142857 C20.6571429,4 19.1428571,5.25714286 19.1428571,7.08571429 C19.1428571,8.68571429 20.5428571,9.51428571 21.7428571,9.97142857 C22.7714286,10.3714286 23.7428571,10.6857143 23.7428571,11.3428571 C23.7428571,11.8285714 23.3428571,12.1714286 22.4571429,12.1714286 C21.6285714,12.1714286 20.8285714,11.8571429 19.9142857,11.1428571 L18.6285714,13.0571429 C19.6,13.8857143 21.1142857,14.4285714 22.3714286,14.4285714 C25,14.4285714 26.4,13.0571429 26.4,11.2571429 C26.4285714,9.42857143 25.0285714,8.68571429 23.7428571,8.25714286" id="Path" fill="#FAF9F8" fill-rule="nonzero"></path>
            <path d="M31.6857143,8.25714286 C30.7142857,7.85714286 29.7714286,7.62857143 29.7714286,6.97142857 C29.7714286,6.48571429 30.1714286,6.17142857 30.8857143,6.17142857 C31.6,6.17142857 32.2571429,6.45714286 33,7 L34.3142857,5.25714286 C33.4857143,4.62857143 32.3714286,3.97142857 30.8571429,3.97142857 C28.6285714,3.97142857 27.1142857,5.25714286 27.1142857,7.05714286 C27.1142857,8.65714286 28.5142857,9.48571429 29.7142857,9.94285714 C30.7428571,10.3428571 31.7142857,10.6571429 31.7142857,11.3142857 C31.7142857,11.8 31.3142857,12.1428571 30.4285714,12.1428571 C29.6,12.1428571 28.8,11.8285714 27.8857143,11.1142857 L26.5714286,13.0285714 C27.5428571,13.8571429 29.0571429,14.4 30.3142857,14.4 C32.9428571,14.4 34.3428571,13.0285714 34.3428571,11.2285714 C34.3714286,9.42857143 32.9714286,8.68571429 31.6857143,8.25714286" id="Path" fill="#FAF9F8" fill-rule="nonzero"></path>
            <path d="M12.1714286,8.08571429 C12.3714286,6.77142857 13.1428571,6.14285714 14.0857143,6.14285714 C15.2571429,6.14285714 15.7142857,6.97142857 15.7142857,8.08571429 L12.1714286,8.08571429 L12.1714286,8.08571429 Z M18.2285714,8.68571429 C18.2571429,6.02857143 16.8285714,3.94285714 14.0571429,3.94285714 C11.6571429,3.94285714 9.37142857,5.94285714 9.42857143,9.08571429 C9.42857143,12.3428571 11.5714286,14.2285714 14.4,14.2285714 C15.5714286,14.2285714 16.8857143,13.8 17.9142857,13.1142857 L16.9428571,11.3714286 C16.2285714,11.8 15.5428571,12 14.8,12 C13.4857143,12 12.4571429,11.3714286 12.2,9.85714286 L18.1428571,9.85714286 C18.1714286,9.68571429 18.2285714,9.2 18.2285714,8.68571429 L18.2285714,8.68571429 Z" id="Shape" fill="#FAF9F8" fill-rule="nonzero"></path>
            <path d="M9.25714286,11.9714286 C9.02857143,11.9714286 8.74285714,11.7714286 8.74285714,11.1428571 L8.74285714,0 L4.08571429,0 C2.31428571,0 1.51428571,0.685714286 1.51428571,2.82857143 C1.51428571,4.22857143 1.71428571,5.02857143 1.71428571,6.25714286 C1.71428571,6.94285714 1.28571429,7.65714286 0,7.74285714 L0,9.45714286 C1.28571429,9.48571429 1.71428571,10.2 1.71428571,10.9142857 C1.71428571,12.1428571 1.51428571,12.8571429 1.51428571,14.2571429 C1.51428571,16.4 2.31428571,17.0857143 4.05714286,17.0857143 L5.34285714,17.0857143 L5.34285714,15.5714286 L4.91428571,15.5714286 C4.08571429,15.5714286 3.82857143,15.2571429 3.82857143,14.1714286 C3.82857143,13.0857143 3.91428571,12.1714286 3.91428571,10.9428571 C3.91428571,9.42857143 3.42857143,8.82857143 2.42857143,8.6 L2.42857143,8.51428571 C3.4,8.28571429 3.91428571,7.68571429 3.91428571,6.17142857 C3.91428571,5 3.82857143,4.02857143 3.82857143,2.94285714 C3.82857143,1.85714286 4.05714286,1.57142857 4.91428571,1.57142857 L5.8,1.57142857 L5.8,11 C5.8,13 6.48571429,14.3142857 8.48571429,14.3142857 C9.11428571,14.3142857 9.6,14.2285714 9.97142857,14.0857143 L9.65714286,11.9428571 C9.45714286,11.9714286 9.37142857,11.9714286 9.25714286,11.9714286" id="Path" fill="#FAF9F8" fill-rule="nonzero"></path>
        </g>
    </g>
</svg>