<?xml version="1.0" encoding="UTF-8"?>
<svg width="60px" height="60px" viewBox="0 0 60 60" version="1.1" xmlns="http://www.w3.org/2000/svg" xmlns:xlink="http://www.w3.org/1999/xlink">
    <!-- Generator: Sketch 54.1 (76490) - https://sketchapp.com -->
    <title>Artboard Copy 5</title>
    <desc>Created with Sketch.</desc>
    <g id="Artboard-Copy-5" stroke="none" stroke-width="1" fill="none" fill-rule="evenodd">
        <rect id="Rectangle-Copy" stroke-opacity="0.201240166" stroke="#000000" stroke-width="2" fill="#DE4F4F" x="1" y="1" width="58" height="58" rx="8"></rect>
        <g id="Group-19" transform="translate(10.000000, 10.000000)" fill="#FFFFFF" fill-rule="nonzero">
            <path d="M-9.9475983e-14,5.68434189e-14 L34.2601204,36.2827921 C34.2601204,36.2827921 35.4236041,37.1061806 36.3185916,36.1395941 C37.2135791,35.1730076 36.5333886,34.2243209 36.5333886,34.2243209 L-9.9475983e-14,5.68434189e-14 L-9.9475983e-14,5.68434189e-14 Z" id="path8"></path>
            <path d="M10.8472482,3.43675189 L36.9271831,31.5572582 C36.9271831,31.5572582 38.0906668,32.3806467 38.9856543,31.4140602 C39.8806417,30.4474738 39.2004512,29.4987871 39.2004512,29.4987871 L10.8472482,3.43675189 L10.8472482,3.43675189 Z" id="path10"></path>
            <path d="M3.2219549,10.7756492 L29.3018898,38.8961555 C29.3018898,38.8961555 30.4653735,39.719544 31.360361,38.7529575 C32.2553485,37.786371 31.575158,36.8376843 31.575158,36.8376843 L3.2219549,10.7756492 L3.2219549,10.7756492 Z" id="path12"></path>
            <path d="M20.0119199,6.3723108 L38.2517645,26.0262357 C38.2517645,26.0262357 39.075153,26.5990277 39.6837445,25.9367369 C40.292336,25.2744462 39.8269425,24.5942557 39.8269425,24.5942557 L20.0119199,6.3723108 L20.0119199,6.3723108 Z" id="path14"></path>
            <path d="M5.74581957,19.2780301 L23.9677645,38.9140553 C23.9677645,38.9140553 24.791153,39.4868472 25.3997444,38.8245565 C26.0262357,38.1622658 25.5429424,37.4820753 25.5429424,37.4820753 L5.74581957,19.2780301 L5.74581957,19.2780301 Z" id="path16"></path>
            <path d="M29.3913886,10.6324512 L37.643173,19.5644261 C37.643173,19.5644261 38.0548673,19.8329224 38.359163,19.5107269 C38.6634588,19.1885314 38.430762,18.8842356 38.430762,18.8842356 L29.3913886,10.6324512 C29.3913886,10.6324512 29.3913886,10.6324512 29.3913886,10.6324512 Z" id="path18"></path>
            <path d="M10.2923559,28.3353033 L18.5441404,37.2672783 C18.5441404,37.2672783 18.9558346,37.5357746 19.2601304,37.2135791 C19.5644261,36.8913836 19.3317294,36.5870878 19.3317294,36.5870878 L10.2923559,28.3353033 C10.2923559,28.3353033 10.2923559,28.3353033 10.2923559,28.3353033 Z" id="path20"></path>
        </g>
    </g>
</svg>