<?xml version="1.0" encoding="UTF-8"?>
<svg width="60px" height="60px" viewBox="0 0 60 60" version="1.1" xmlns="http://www.w3.org/2000/svg" xmlns:xlink="http://www.w3.org/1999/xlink">
    <!-- Generator: Sketch 54.1 (76490) - https://sketchapp.com -->
    <title>Artboard Copy 7</title>
    <desc>Created with Sketch.</desc>
    <g id="Artboard-Copy-7" stroke="none" stroke-width="1" fill="none" fill-rule="evenodd">
        <rect id="Rectangle" stroke-opacity="0.194957386" stroke="#000000" stroke-width="2" fill="#8993BE" x="1" y="1" width="58" height="58" rx="8"></rect>
        <g id="php_s" transform="translate(10.000000, 19.000000)" fill-rule="nonzero">
            <ellipse id="Oval" fill="#FFFFFF" cx="20" cy="10.5714286" rx="20" ry="10.4"></ellipse>
            <path d="M5.62857143,16.7428571 L7.82857143,5.65714286 L12.8857143,5.65714286 C15.0857143,5.8 16.1714286,6.88571429 16.1714286,8.8 C16.1714286,12.0857143 13.5714286,14 11.2285714,13.8571429 L8.77142857,13.8571429 L8.22857143,16.7428571 L5.62857143,16.7428571 Z" id="Path" fill="#8993BE"></path>
            <path d="M9.31428571,11.8 L10,7.68571429 L11.7714286,7.68571429 C12.7428571,7.68571429 13.4285714,8.08571429 13.4285714,8.91428571 C13.2857143,11.2571429 12.2,11.6571429 10.9714286,11.8 L9.31428571,11.8 L9.31428571,11.8 Z" id="Path" fill="#FFFFFF"></path>
            <path d="M15.6571429,13.8571429 L17.8571429,2.77142857 L20.4571429,2.77142857 L19.9142857,5.65714286 L22.3714286,5.65714286 C24.5714286,5.8 25.3714286,6.88571429 25.1142857,8.25714286 L24.1428571,13.8857143 L21.4,13.8857143 L22.3714286,8.82857143 C22.5142857,8.14285714 22.5142857,7.74285714 21.5428571,7.74285714 L19.4857143,7.74285714 L18.2571429,13.9142857 L15.6571429,13.9142857 L15.6571429,13.8571429 Z" id="Path" fill="#8993BE"></path>
            <path d="M23.9714286,16.7428571 L26.1714286,5.65714286 L31.2285714,5.65714286 C33.4285714,5.8 34.5142857,6.88571429 34.5142857,8.8 C34.5142857,12.0857143 31.9142857,14 29.5714286,13.8571429 L27.1142857,13.8571429 L26.5714286,16.7428571 L23.9714286,16.7428571 Z" id="Path" fill="#8993BE"></path>
            <path d="M27.6571429,11.8 L28.3428571,7.68571429 L30.1142857,7.68571429 C31.0857143,7.68571429 31.7714286,8.08571429 31.7714286,8.91428571 C31.6285714,11.2571429 30.5428571,11.6571429 29.3142857,11.8 L27.6571429,11.8 L27.6571429,11.8 Z" id="Path" fill="#FFFFFF"></path>
        </g>
    </g>
</svg>