<?xml version="1.0" encoding="UTF-8"?>
<svg width="60px" height="60px" viewBox="0 0 60 60" version="1.1" xmlns="http://www.w3.org/2000/svg" xmlns:xlink="http://www.w3.org/1999/xlink">
    <!-- Generator: Sketch 54.1 (76490) - https://sketchapp.com -->
    <title>Artboard Copy 10</title>
    <desc>Created with Sketch.</desc>
    <g id="Artboard-Copy-10" stroke="none" stroke-width="1" fill="none" fill-rule="evenodd">
        <rect id="Rectangle-Copy-6" stroke-opacity="0.202551355" stroke="#000000" stroke-width="2" fill="#CF649A" x="1" y="1" width="58" height="58" rx="8"></rect>
        <g id="saas_s" transform="translate(10.000000, 15.000000)" fill="#FFFFFF" fill-rule="nonzero">
            <path d="M34.4680851,17.248227 C33.0780142,17.248227 31.8865248,17.5886525 30.8652482,18.0992908 C30.4964539,17.3617021 30.1276596,16.7092199 30.070922,16.2269504 C30.0141844,15.6595745 29.929078,15.3191489 30.0141844,14.6666667 C30.0992908,13.9858156 30.4964539,13.0496454 30.4964539,12.964539 C30.4964539,12.9078014 30.4113475,12.5673759 29.6170213,12.5390071 C28.822695,12.5390071 28.1134752,12.6808511 28.0567376,12.9078014 C27.9716312,13.106383 27.8297872,13.5886525 27.7163121,14.0992908 C27.5744681,14.8368794 26.1276596,17.4184397 25.2765957,18.7801418 C24.9929078,18.2411348 24.7659574,17.787234 24.7375887,17.4184397 C24.6808511,16.8510638 24.5957447,16.5106383 24.6808511,15.858156 C24.7659574,15.177305 25.1631206,14.2411348 25.1631206,14.1560284 C25.1631206,14.0992908 25.0780142,13.7588652 24.2836879,13.7304965 C23.4893617,13.7304965 22.7801418,13.8723404 22.7234043,14.0992908 C22.6666667,14.3262411 22.5531915,14.8085106 22.3829787,15.2907801 C22.212766,15.7730496 20.2836879,20.0851064 19.7730496,21.2198582 C19.5177305,21.787234 19.2907801,22.2411348 19.1205674,22.5531915 C18.9503546,22.8652482 19.1205674,22.5815603 19.0921986,22.6099291 C18.9503546,22.8652482 18.8652482,23.0070922 18.8652482,23.0070922 L18.8652482,23.0070922 C18.751773,23.2056738 18.6382979,23.3758865 18.5815603,23.3758865 C18.5531915,23.3758865 18.4680851,22.8652482 18.6099291,22.1560284 C18.893617,20.6524823 19.6028369,18.3262411 19.5744681,18.2411348 C19.5744681,18.212766 19.7163121,17.787234 19.1205674,17.5886525 C18.5531915,17.3900709 18.3546099,17.7304965 18.2978723,17.7304965 C18.2411348,17.7304965 18.212766,17.8439716 18.212766,17.8439716 C18.212766,17.8439716 18.8368794,15.2056738 17.0212766,15.2056738 C15.8865248,15.2056738 14.2978723,16.4539007 13.5035461,17.5886525 C12.9929078,17.8723404 11.9432624,18.4397163 10.8368794,19.035461 C10.4113475,19.2624113 9.95744681,19.5177305 9.56028369,19.7446809 L9.4751773,19.6595745 C7.23404255,17.3049645 3.12056738,15.6312057 3.29078014,12.4539007 C3.34751773,11.2907801 3.74468085,8.25531915 11.177305,4.56737589 C17.248227,1.53191489 22.1276596,2.38297872 22.9503546,4.22695035 C24.141844,6.86524823 20.3404255,11.7730496 14.0425532,12.4822695 C11.6312057,12.7659574 10.3829787,11.8297872 10.0425532,11.4609929 C9.70212766,11.0921986 9.67375887,11.0921986 9.53191489,11.1489362 C9.33333333,11.2624113 9.44680851,11.5744681 9.53191489,11.7730496 C9.73049645,12.2553191 10.4964539,13.1347518 11.8014184,13.5602837 C12.964539,13.929078 15.7730496,14.1560284 19.2056738,12.822695 C23.035461,11.3475177 26.0141844,7.23404255 25.1347518,3.80141844 C24.2553191,0.283687943 18.4680851,-0.85106383 12.964539,1.10638298 C9.70212766,2.26950355 6.15602837,4.08510638 3.60283688,6.46808511 C0.595744681,9.27659574 0.113475177,11.7446809 0.312056738,12.7659574 C1.0212766,16.4255319 6.04255319,18.8085106 8.05673759,20.5673759 C7.94326241,20.6241135 7.85815603,20.6808511 7.77304965,20.7092199 C6.75177305,21.2198582 2.92198582,23.2056738 1.95744681,25.3333333 C0.879432624,27.7446809 2.12765957,29.4751773 2.9787234,29.7021277 C5.56028369,30.4113475 8.22695035,29.1347518 9.64539007,27.0070922 C11.0638298,24.8794326 10.893617,22.0992908 10.2411348,20.8510638 L10.212766,20.7943262 L11.0070922,20.3404255 C11.5177305,20.0283688 12.0283688,19.7446809 12.4539007,19.5177305 C12.1985816,20.1985816 12.0283688,20.9929078 11.9432624,22.1560284 C11.8297872,23.5177305 12.3971631,25.2765957 13.1347518,25.9858156 C13.4468085,26.2978723 13.8439716,26.2978723 14.0992908,26.2978723 C14.9503546,26.2978723 15.3475177,25.5886525 15.7730496,24.7375887 C16.3120567,23.7163121 16.7659574,22.5248227 16.7659574,22.5248227 C16.7659574,22.5248227 16.1702128,25.7588652 17.787234,25.7588652 C18.3829787,25.7588652 18.9503546,24.9929078 19.2056738,24.6241135 L19.2056738,24.6241135 C19.2056738,24.6241135 19.2340426,24.5957447 19.2624113,24.5390071 C19.3191489,24.4539007 19.3475177,24.3971631 19.3475177,24.3971631 L19.3475177,24.3687943 C19.5744681,23.9716312 20.1134752,23.035461 20.8794326,21.5035461 C21.8723404,19.5460993 22.8368794,17.0780142 22.8368794,17.0780142 C22.8368794,17.0780142 22.9219858,17.6737589 23.2056738,18.6666667 C23.3758865,19.2624113 23.7446809,19.8865248 24.0283688,20.5390071 C23.8014184,20.8510638 23.6595745,21.0496454 23.6595745,21.0496454 L23.6595745,21.0496454 C23.4609929,21.3049645 23.2624113,21.5602837 23.035461,21.8156028 C22.2411348,22.751773 21.3049645,23.8297872 21.1631206,24.141844 C21.0212766,24.5106383 21.0496454,24.7659574 21.3333333,24.9929078 C21.5319149,25.1347518 21.929078,25.1914894 22.2978723,25.1347518 C23.0070922,25.0780142 23.5177305,24.9078014 23.7446809,24.7943262 C24.141844,24.6524823 24.5673759,24.4539007 24.9929078,24.141844 C25.7588652,23.5744681 26.2411348,22.751773 26.1843972,21.6737589 C26.1560284,21.0780142 25.9574468,20.4822695 25.7304965,19.9148936 C25.787234,19.8014184 25.8723404,19.7163121 25.929078,19.6028369 C27.1489362,17.8156028 28.1134752,15.8297872 28.1134752,15.8297872 C28.1134752,15.8297872 28.1985816,16.4255319 28.4822695,17.4184397 C28.6241135,17.929078 28.9361702,18.4680851 29.1914894,19.0070922 C28.0567376,19.9432624 27.3191489,21.0212766 27.0638298,21.7588652 C26.6099291,23.0638298 26.9503546,23.6879433 27.6312057,23.8014184 C27.9432624,23.858156 28.3687943,23.7163121 28.6808511,23.5744681 C29.0780142,23.4326241 29.5602837,23.2056738 30.0141844,22.893617 C30.7801418,22.3262411 31.5460993,21.5319149 31.4893617,20.4539007 C31.4609929,19.9432624 31.3475177,19.4609929 31.1489362,19.0070922 C32.1134752,18.6099291 33.3900709,18.3829787 35.0070922,18.5531915 C38.4680851,18.9503546 39.1489362,21.106383 39.0070922,22.0141844 C38.8652482,22.9219858 38.1560284,23.4042553 37.9007092,23.5744681 C37.6737589,23.7163121 37.5886525,23.7730496 37.6170213,23.8865248 C37.6453901,24.0567376 37.7588652,24.0283688 37.9574468,24 C38.2411348,23.9432624 39.7730496,23.2624113 39.8297872,21.6170213 C40.0851064,19.5460993 38.070922,17.2198582 34.4680851,17.248227 L34.4680851,17.248227 Z M7.85815603,26.212766 C6.72340426,27.4609929 5.10638298,27.9432624 4.42553191,27.5177305 C3.68794326,27.0921986 3.97163121,25.248227 5.39007092,23.9148936 C6.24113475,23.1205674 7.34751773,22.3546099 8.08510638,21.9007092 C8.25531915,21.787234 8.4822695,21.6453901 8.79432624,21.4751773 C8.85106383,21.4468085 8.87943262,21.4184397 8.87943262,21.4184397 C8.93617021,21.3900709 8.9929078,21.3617021 9.04964539,21.3049645 C9.56028369,23.2624113 9.04964539,24.9078014 7.85815603,26.212766 L7.85815603,26.212766 Z M16.1985816,20.5390071 C15.8014184,21.5035461 14.9787234,24 14.4680851,23.858156 C14.0425532,23.7446809 13.7588652,21.8439716 14.3829787,20 C14.6950355,19.0638298 15.3475177,17.9574468 15.7446809,17.5035461 C16.3687943,16.7943262 17.0496454,16.5673759 17.2198582,16.8510638 C17.4184397,17.248227 16.4255319,19.9432624 16.1985816,20.5390071 Z M23.0638298,23.8297872 C22.893617,23.9148936 22.751773,23.9716312 22.6666667,23.9432624 C22.6099291,23.9148936 22.7234043,23.8014184 22.7234043,23.8014184 C22.7234043,23.8014184 23.5744681,22.8652482 23.9148936,22.4397163 C24.1134752,22.1843972 24.3404255,21.9007092 24.5957447,21.5886525 L24.5957447,21.6737589 C24.6241135,22.7801418 23.5460993,23.5460993 23.0638298,23.8297872 Z M28.3687943,22.6382979 C28.2553191,22.5531915 28.2553191,22.2695035 28.6808511,21.3617021 C28.8510638,20.9929078 29.2198582,20.3971631 29.8723404,19.8297872 C29.9574468,20.0567376 29.9858156,20.2836879 29.9858156,20.5106383 C29.9858156,21.9007092 28.9929078,22.4113475 28.3687943,22.6382979 Z" id="Shape"></path>
        </g>
    </g>
</svg>